<?xml version="1.0" encoding="utf-8"?>
<!-- Generator: Adobe Illustrator 22.0.0, SVG Export Plug-In . SVG Version: 6.00 Build 0)  -->
<svg version="1.1" id="Layer_1" xmlns="http://www.w3.org/2000/svg" xmlns:xlink="http://www.w3.org/1999/xlink" x="0px" y="0px"
	 viewBox="0 0 403.7 216.1" style="enable-background:new 0 0 403.7 216.1;" xml:space="preserve">
<style type="text/css">
	.st0{fill:#EB9999;}
</style>
<g>
	<path class="st0" d="M67.2,48.9h38.7v156H85.4v-54.5c-8.9,2.4-16.5,3.6-22.6,3.6c-14.7,0-26.8-4.9-36.4-14.8S12,116.8,12,101.6
		c0-16.1,5-28.9,15-38.4C36.9,53.7,50.3,48.9,67.2,48.9z M85.4,132.7V68H72.5c-8.9,0-14.8,0.4-17.7,1.2c-3,0.8-5.5,1.9-7.7,3.3
		c-2.2,1.4-4.2,3.1-6,5.1c-5.6,6.4-8.4,14.2-8.4,23.5c0,10.5,3.2,19.2,9.5,25.8c6.3,6.7,14.5,10,24.6,10c2.3,0,4.2-0.1,5.7-0.4
		c1.5-0.3,4.8-1.3,9.9-3l1.6-0.4L85.4,132.7z"/>
	<path class="st0" d="M176.2,152.2V139c-4.3,4.8-9.3,8.4-14.9,11.1c-5.6,2.6-11.1,4-16.7,4c-6.5,0-12.5-1.6-18-4.9
		s-9.7-7.7-12.5-13.3c-2.8-5.6-4.2-14.8-4.2-27.8V48.9h20.4v58.9c0,10.8,1.6,18.4,4.7,22.7c3.1,4.3,8.6,6.4,16.3,6.4
		c9.7,0,18-4.8,24.8-14.3V34.2h20.4v118H176.2z"/>
	<path class="st0" d="M201,204.9v-156h35.8c18.3,0,32.6,4.6,42.8,13.7c10.2,9.1,15.3,21.9,15.3,38.3c0,15.5-4.8,28.2-14.4,38.2
		c-9.6,10-21.8,14.9-36.7,14.9c-6.6,0-13.9-1.5-21.9-4.4v55.3H201z M236.4,68h-14.5v63.6c6.3,3.2,12.8,4.8,19.7,4.8
		c9.6,0,17.4-3.3,23.5-10c6.1-6.7,9.1-15.2,9.1-25.7c0-6.7-1.4-12.7-4.3-17.9s-6.8-8.9-11.8-11.3C253.2,69.2,245.9,68,236.4,68z"/>
	<path class="st0" d="M299.9,204.9v-156h35.8c18.3,0,32.6,4.6,42.8,13.7c10.2,9.1,15.3,21.9,15.3,38.3c0,15.5-4.8,28.2-14.4,38.2
		c-9.6,10-21.8,14.9-36.7,14.9c-6.6,0-13.9-1.5-21.9-4.4v55.3H299.9z M335.3,68h-14.5v63.6c6.3,3.2,12.8,4.8,19.7,4.8
		c9.6,0,17.4-3.3,23.5-10c6.1-6.7,9.1-15.2,9.1-25.7c0-6.7-1.4-12.7-4.3-17.9s-6.8-8.9-11.8-11.3C352.1,69.2,344.8,68,335.3,68z"/>
</g>
<polygon class="st0" points="159.8,40.2 186.8,10.2 213.8,40.2 "/>
</svg>
